<svg width="47" height="47" viewBox="0 0 47 47" fill="none" xmlns="http://www.w3.org/2000/svg">
<path fill-rule="evenodd" clip-rule="evenodd" d="M22.667 46.4966C23.8048 45.1758 24.6632 43.6554 25.3539 42.1187C26.9289 38.6149 27.596 34.1555 27.4515 30.1898C27.2947 25.8747 26.2104 22.347 23.3033 18.1424C19.3085 12.3641 12.7302 10.567 11.9997 10.4018C15.7665 8.24502 16.4999 5.46528 16.4999 5.46528C16.9241 4.12677 16.9409 2.86603 16.763 1.79597C16.7164 1.51625 16.66 1.2781 16.6059 1.03003C6.99338 3.97631 0 12.9337 0 23.5327C0 36.0937 9.82739 46.3263 22.1928 47C22.3523 46.8331 22.5172 46.6706 22.667 46.4966Z" fill="#D6368C"/>
<path fill-rule="evenodd" clip-rule="evenodd" d="M23.4802 0C22.081 0 20.7181 0.145356 19.3864 0.380555C20.4754 1.71692 20.7446 2.9782 20.7104 4.71014C20.6277 8.90322 17.6406 10.3946 17.6406 10.3946C17.6406 10.3946 24.2283 11.6701 29.3037 18.6936C35.8087 27.8588 31.8805 37.5913 31.8805 37.5913C30.4505 41.7409 27.879 44.8486 25.3752 46.9142C25.3752 46.9142 25.3712 46.9314 25.3388 46.9711C37.4348 46.0187 46.9604 35.9004 46.9604 23.5327C46.9604 10.5359 36.448 0 23.4802 0Z" fill="#D6368C"/>
</svg>
